<?xml version="1.0" encoding="UTF-8"?>
<!DOCTYPE svg PUBLIC "-//W3C//DTD SVG 1.1//EN" "http://www.w3.org/Graphics/SVG/1.1/DTD/svg11.dtd">
<!-- Creator: CorelDRAW -->
<svg xmlns="http://www.w3.org/2000/svg" xml:space="preserve" width="95.412mm" height="30.2489mm" version="1.1" style="shape-rendering:geometricPrecision; text-rendering:geometricPrecision; image-rendering:optimizeQuality; fill-rule:evenodd; clip-rule:evenodd"
viewBox="0 0 3704.15 1174.34"
 xmlns:xlink="http://www.w3.org/1999/xlink"
 xmlns:xodm="http://www.corel.com/coreldraw/odm/2003">
 <defs>
  <style type="text/css">
   <![CDATA[
    .fil1 {fill:white}
    .fil0 {fill:white;fill-rule:nonzero}
   ]]>
  </style>
 </defs>
 <g id="Слой_x0020_1">
  <metadata id="CorelCorpID_0Corel-Layer"/>
  <g id="_105553288332608">
   <path class="fil0" d="M1807.12 890.32l0 127.91c0,11.77 -9.59,21.37 -21.37,21.37l-47.93 0c-11.77,0 -21.37,-9.6 -21.37,-21.37l0 -49.27 -224.43 0 0 49.27c0,11.77 -9.6,21.37 -21.37,21.37l-48.44 0c-11.77,0 -21.37,-9.6 -21.37,-21.37l0 -127.91 12.53 0c20.7,-0.33 35.31,-14.53 43.83,-42.58 8.51,-28.05 13.77,-68.46 15.77,-121.23l3.25 -87.63c0.42,-11.48 9.86,-20.58 21.35,-20.58l240.57 0c11.77,0 21.37,9.6 21.37,21.37l0 250.65 47.58 0zm-247.46 -155.29c-1.33,37.4 -4.34,69.13 -9.02,95.18 -4.67,26.05 -11.85,46.09 -21.54,60.11l132.75 0 0 -193.36 -100.69 0 -1.5 38.07zm467.38 240.95c-37.07,0 -70.38,-7.85 -99.94,-23.54 -29.55,-15.7 -52.76,-37.4 -69.63,-65.13 -16.86,-27.72 -25.3,-58.94 -25.3,-93.68 0,-34.73 8.44,-65.96 25.3,-93.68 16.87,-27.72 40.08,-49.43 69.63,-65.12 29.56,-15.7 62.87,-23.55 99.94,-23.55 37.07,0 70.38,7.85 99.94,23.55 29.56,15.69 52.77,37.41 69.63,65.12 16.87,27.72 25.3,58.95 25.3,93.68 0,34.73 -8.43,65.96 -25.3,93.68 -16.86,27.72 -40.08,49.43 -69.63,65.13 -29.56,15.7 -62.87,23.54 -99.94,23.54zm0 -82.16c17.7,0 33.73,-4.17 48.09,-12.52 14.36,-8.35 25.72,-20.12 34.07,-35.32 8.35,-15.2 12.52,-32.65 12.52,-52.35 0,-19.71 -4.17,-37.15 -12.52,-52.35 -8.35,-15.19 -19.7,-26.97 -34.07,-35.31 -14.36,-8.35 -30.39,-12.52 -48.09,-12.52 -17.7,0 -33.73,4.17 -48.09,12.52 -14.35,8.35 -25.71,20.12 -34.06,35.31 -8.35,15.2 -12.52,32.65 -12.52,52.35 0,19.7 4.17,37.15 12.52,52.35 8.34,15.2 19.7,26.97 34.06,35.32 14.36,8.35 30.39,12.52 48.09,12.52zm389.74 -59.11l-45.09 0 0 112.88c0,11.77 -9.6,21.37 -21.36,21.37l-55.95 0c-11.77,0 -21.37,-9.6 -21.37,-21.37l0 -307.93c0,-11.77 9.59,-21.37 21.37,-21.37l55.95 0c11.77,0 21.36,9.6 21.36,21.37l0 114.89 47.59 0 77.4 -126.07c3.99,-6.51 10.56,-10.19 18.2,-10.19l52.94 0c8.04,0 14.93,4.1 18.78,11.17 3.84,7.06 3.53,15.08 -0.85,21.82l-88.34 136.33 90.87 148.84c4.13,6.77 4.29,14.67 0.4,21.59 -3.88,6.93 -10.7,10.91 -18.63,10.91l-61.46 0c-7.76,0 -14.42,-3.8 -18.38,-10.47l-73.44 -123.79zm489.03 -137.76l-85.83 0 0 250.64c0,11.76 -9.6,21.37 -21.36,21.37l-54.95 0c-11.77,0 -21.36,-9.6 -21.36,-21.37l0 -250.64 -86.34 0c-11.76,0 -21.37,-9.6 -21.37,-21.37l0 -35.91c0,-11.77 9.6,-21.37 21.37,-21.37l269.85 0c11.77,0 21.37,9.6 21.37,21.37l0 35.91c0,11.77 -9.61,21.37 -21.37,21.37zm234.28 279.02c-37.08,0 -70.39,-7.85 -99.94,-23.54 -29.56,-15.7 -52.77,-37.4 -69.63,-65.13 -16.87,-27.72 -25.3,-58.94 -25.3,-93.68 0,-34.73 8.43,-65.96 25.3,-93.68 16.86,-27.72 40.07,-49.43 69.63,-65.12 29.55,-15.7 62.87,-23.55 99.94,-23.55 37.07,0 70.38,7.85 99.93,23.55 29.56,15.69 52.77,37.41 69.64,65.12 16.86,27.72 25.29,58.95 25.29,93.68 0,34.73 -8.43,65.96 -25.29,93.68 -16.87,27.72 -40.08,49.43 -69.64,65.13 -29.55,15.7 -62.87,23.54 -99.93,23.54zm0 -82.16c17.7,0 33.73,-4.17 48.09,-12.52 14.36,-8.35 25.72,-20.12 34.06,-35.32 8.36,-15.2 12.53,-32.65 12.53,-52.35 0,-19.71 -4.17,-37.15 -12.53,-52.35 -8.35,-15.19 -19.7,-26.97 -34.06,-35.31 -14.36,-8.35 -30.39,-12.52 -48.09,-12.52 -17.7,0 -33.73,4.17 -48.09,12.52 -14.36,8.35 -25.71,20.12 -34.06,35.31 -8.35,15.2 -12.53,32.65 -12.53,52.35 0,19.7 4.18,37.15 12.53,52.35 8.35,15.2 19.7,26.97 34.06,35.32 14.36,8.35 30.39,12.52 48.09,12.52zm408.27 -275.52c31.73,0 59.28,5.26 82.66,15.79 23.37,10.52 41.41,25.55 54.1,45.08 12.69,19.54 19.03,42.5 19.03,68.88 0,26.38 -6.34,49.26 -19.03,68.63 -12.69,19.37 -30.73,34.31 -54.1,44.83 -23.38,10.52 -50.94,15.78 -82.66,15.78l-61.11 0 0 70.31c0,11.76 -9.61,21.37 -21.38,21.37l-56.45 0c-11.77,0 -21.37,-9.6 -21.37,-21.37l0 -307.93c0,-11.77 9.6,-21.37 21.37,-21.37l138.93 0zm-6.01 180.84c20.37,0 35.73,-4.42 46.09,-13.27 10.36,-8.85 15.53,-21.46 15.53,-37.82 0,-16.36 -5.18,-29.06 -15.53,-38.07 -10.35,-9.02 -25.72,-13.53 -46.09,-13.53l-55.1 0 0 102.69 55.1 0z"/>
   <path class="fil0" d="M1746.46 464.09l-0.44 -164.54 -83.97 140.86c-3.96,6.65 -10.61,10.43 -18.35,10.43l-19.97 0c-7.65,0 -14.22,-3.68 -18.22,-10.21l-83.92 -137.07 0 160.47c0,11.77 -9.59,21.37 -21.37,21.37l-48.44 0c-11.76,0 -21.37,-9.6 -21.37,-21.37l0 -307.93c0,-11.77 9.6,-21.37 21.37,-21.37l48.28 0c7.67,0 14.26,3.7 18.25,10.26l116.99 192.13 114.02 -191.93c3.96,-6.66 10.61,-10.45 18.36,-10.45l48.19 0c11.74,0 21.33,9.56 21.36,21.31l0.89 307.93c0.01,5.89 -2.08,10.98 -6.25,15.14 -4.16,4.18 -9.23,6.28 -15.12,6.28l-48.94 0c-11.75,0 -21.34,-9.56 -21.37,-21.31zm408.33 -46.82l-148.29 0 -22.15 54.77c-3.33,8.24 -10.92,13.35 -19.8,13.35l-53.99 0c-7.44,0 -13.85,-3.46 -17.91,-9.7 -4.06,-6.24 -4.65,-13.49 -1.65,-20.3l135.93 -307.93c3.5,-7.92 10.89,-12.74 19.55,-12.74l69.86 0c8.64,0 16.03,4.81 19.54,12.71l136.36 307.93c3.02,6.81 2.44,14.07 -1.63,20.31 -4.06,6.24 -10.46,9.71 -17.91,9.71l-55.96 0c-8.89,0 -16.47,-5.11 -19.8,-13.35l-22.15 -54.77zm-29.06 -73.13l-45.08 -112.21 -45.08 112.21 90.17 0zm515.92 119.95l-0.44 -164.54 -83.96 140.86c-3.97,6.65 -10.61,10.43 -18.36,10.43l-19.97 0c-7.65,0 -14.23,-3.68 -18.22,-10.21l-83.92 -137.07 0 160.47c0,11.77 -9.6,21.37 -21.37,21.37l-48.44 0c-11.77,0 -21.38,-9.6 -21.38,-21.37l0 -307.93c0,-11.77 9.6,-21.37 21.38,-21.37l48.28 0c7.68,0 14.27,3.7 18.25,10.26l117 192.13 114.01 -191.93c3.96,-6.66 10.62,-10.45 18.37,-10.45l48.18 0c11.75,0 21.34,9.56 21.37,21.31l0.88 307.93c0.02,5.89 -2.07,10.98 -6.23,15.14 -4.17,4.18 -9.24,6.28 -15.13,6.28l-48.94 0c-11.74,0 -21.33,-9.56 -21.37,-21.31zm408.33 -46.82l-148.28 0 -22.14 54.77c-3.34,8.24 -10.92,13.35 -19.81,13.35l-54 0c-7.43,0 -13.84,-3.46 -17.9,-9.7 -4.06,-6.24 -4.65,-13.49 -1.65,-20.3l135.92 -307.93c3.5,-7.92 10.9,-12.74 19.55,-12.74l69.85 0c8.65,0 16.04,4.81 19.54,12.71l136.37 307.93c3.01,6.81 2.43,14.07 -1.63,20.31 -4.06,6.24 -10.46,9.71 -17.91,9.71l-55.96 0c-8.89,0 -16.48,-5.11 -19.81,-13.35l-22.15 -54.77zm-29.05 -73.13l-45.08 -112.21 -45.08 112.21 90.17 0z"/>
   <path class="fil1" d="M1157.16 699.05l-240.41 -0.03c-5.28,-14.12 -19.95,-34.58 -28.19,-48.48 -16.52,-27.84 -72.81,-127.27 -86.75,-145.46l-128.38 191.75c-13.4,19.52 -27.24,46.51 -42.71,63.71 -5.15,-5.04 -16.31,-23.5 -21.17,-30.88l-127.94 -193.47c-5.66,-8.72 -15.51,-25.47 -21.54,-31.82 -4.84,5.52 -10.47,17.15 -14.64,23.67 -5,7.82 -9.79,16.01 -14.33,23.95 -22.15,38.76 -69.5,113.03 -86.25,146.89l-102.33 0.28c4.48,18.48 103.46,113.53 132.56,140.16 32.1,29.38 65.26,55.89 98.59,83.73 19.58,16.36 142.37,111.81 157.05,117.03 22.92,-11.86 130.51,-95.38 151.85,-112.64 35,-28.3 73.61,-59.27 106.49,-90.15 11.4,-10.98 22.79,-21.97 34.19,-32.95l14.25 -14.19 14.58 -0.04 133.93 0.66c-5.91,8.72 -15.86,18.37 -22.99,27.01 -7.31,8.87 -17.61,19.02 -25.51,27.28 -33.19,34.7 -70.74,71.5 -107.56,101.86 -19.76,16.3 -36.59,32.22 -57.19,48.34 -58.08,45.44 -117.71,93.14 -179.45,135.59 -18.48,12.71 -43.11,33.41 -62.6,43.49 -6.13,-2.85 -6.02,-3.44 -10.98,-7.2 -3.65,-2.76 -7.33,-4.97 -11.25,-7.9l-107.06 -76.84c-15.2,-11.13 -28.25,-21.03 -42.03,-31.51 -72.3,-54.92 -136.95,-108.79 -199.62,-169.78 -12.82,-12.48 -27.38,-26.9 -36.68,-36.87 -65.07,-69.8 -127.96,-146.13 -169.97,-234.55 -3.76,-7.91 -8.39,-19.21 -11.96,-25.49l236.17 -0.66c5.69,-5.86 17.75,-28.39 22.4,-36.56l66.07 -111.41c12.04,-19.43 80.99,-142.46 89.02,-148.76 16.17,20.32 28.59,43.2 43.28,65.02 14.6,21.67 29.69,44.09 43.98,66.29 6.56,10.2 81.63,126.81 88.63,132.32 11.11,-10.47 33.84,-49.91 44.08,-64.95 14.42,-21.19 122.03,-187.91 131.81,-198.62 9.9,8.75 164.49,283.53 177.49,296.59l115.13 0.1c12.86,-16.17 35.37,-77.57 41.64,-102.27 10.76,-42.35 15.36,-85.39 8.57,-131.5 -6.18,-41.96 -17.94,-77.36 -35.95,-109.67 -81.55,-146.27 -264.27,-166.28 -400,-82.1 -22.98,14.25 -43.28,28.94 -62.93,45.75 -6.02,5.15 -13.51,12.26 -19.84,16.73 -5.92,-3.91 -11.2,-9.52 -17.2,-14.53 -43.17,-36.05 -86.7,-65.45 -142.75,-82.72 -69,-21.26 -155.47,-19.02 -216.07,12.47 -55.7,28.95 -95.46,72.98 -121.88,135.6 -20.46,48.5 -28.3,112.52 -21.14,166.03 2.51,18.76 5.27,39.05 10.94,55l-112.38 0.28c-10.51,-22.02 -11.77,-109.79 -8.91,-138.37 21.98,-219.33 186.88,-370.95 411.92,-352.67 43.81,3.56 85.73,15.85 121.91,31.8 26.44,11.66 50.62,25.08 73.15,41.96 7.8,5.84 14.45,11.71 22.42,16.38 7.8,-4.42 33.56,-24.68 56.49,-38.27 110.37,-65.4 265.13,-73.29 379.5,-9.61 46.56,25.93 74.29,53.09 104.23,87.58 54.41,62.67 98.52,175.12 90.1,289.87 -6.83,93 -39.21,171.92 -85.51,248.4 -5.65,9.33 -14.87,21.23 -18.37,29.38z"/>
  </g>
 </g>
</svg>
