<?xml version="1.0" encoding="UTF-8"?>
<!DOCTYPE svg PUBLIC "-//W3C//DTD SVG 1.1//EN" "http://www.w3.org/Graphics/SVG/1.1/DTD/svg11.dtd">
<!-- Creator: CorelDRAW -->
<svg xmlns="http://www.w3.org/2000/svg" xml:space="preserve" width="95.412mm" height="30.2489mm" version="1.1" style="shape-rendering:geometricPrecision; text-rendering:geometricPrecision; image-rendering:optimizeQuality; fill-rule:evenodd; clip-rule:evenodd"
viewBox="0 0 15443.87 4896.24"
 xmlns:xlink="http://www.w3.org/1999/xlink"
 xmlns:xodm="http://www.corel.com/coreldraw/odm/2003">
 <defs>
  <style type="text/css">
   <![CDATA[
    .fil1 {fill:#292929}
    .fil0 {fill:#292929;fill-rule:nonzero}
   ]]>
  </style>
 </defs>
 <g id="Слой_x0020_1">
  <metadata id="CorelCorpID_0Corel-Layer"/>
  <g id="_105553286598624">
   <path class="fil0" d="M7534.51 3712.07l0 533.31c0,49.08 -40,89.09 -89.09,89.09l-199.82 0c-49.09,0 -89.09,-40.01 -89.09,-89.09l0 -205.41 -935.71 0 0 205.41c0,49.08 -40.05,89.09 -89.09,89.09l-201.96 0c-49.09,0 -89.09,-40.01 -89.09,-89.09l0 -533.31 52.23 0c86.32,-1.39 147.23,-60.59 182.76,-177.55 35.48,-116.95 57.43,-285.45 65.77,-505.44l13.55 -365.35c1.75,-47.88 41.1,-85.8 89.03,-85.8l1003.03 0c49.08,0 89.11,40.03 89.11,89.09l0 1045.05 198.38 0zm-1031.76 -647.48c-5.55,155.94 -18.1,288.22 -37.6,396.84 -19.49,108.6 -49.4,192.15 -89.8,250.63l553.48 0 0 -806.2 -419.83 0 -6.25 158.72zm1948.68 1004.62c-154.55,0 -293.43,-32.71 -416.69,-98.15 -123.21,-65.44 -219.97,-155.94 -290.3,-271.53 -70.3,-115.57 -105.47,-245.76 -105.47,-390.56 0,-144.8 35.17,-275.01 105.47,-390.58 70.33,-115.56 167.09,-206.09 290.3,-271.51 123.26,-65.44 262.14,-98.17 416.69,-98.17 154.55,0 293.45,32.73 416.69,98.17 123.23,65.43 220.01,155.96 290.32,271.51 70.33,115.57 105.47,245.78 105.47,390.58 0,144.8 -35.14,274.99 -105.47,390.56 -70.31,115.59 -167.09,206.09 -290.32,271.53 -123.24,65.44 -262.14,98.15 -416.69,98.15zm0 -342.54c73.79,0 140.63,-17.4 200.52,-52.2 59.89,-34.82 107.22,-83.89 142.04,-147.25 34.82,-63.37 52.22,-136.11 52.22,-218.26 0,-82.16 -17.4,-154.9 -52.22,-218.28 -34.82,-63.34 -82.15,-112.43 -142.04,-147.23 -59.89,-34.82 -126.72,-52.22 -200.52,-52.22 -73.79,0 -140.63,17.4 -200.52,52.22 -59.84,34.8 -107.2,83.89 -141.99,147.23 -34.83,63.37 -52.22,136.11 -52.22,218.28 0,82.15 17.38,154.89 52.22,218.26 34.78,63.35 82.15,112.43 141.99,147.25 59.89,34.8 126.72,52.2 200.52,52.2zm1624.96 -246.44l-187.99 0 0 470.66c0,49.06 -40.01,89.09 -89.07,89.09l-233.28 0c-49.09,0 -89.09,-40.03 -89.09,-89.09l0 -1283.87c0,-49.06 40,-89.09 89.09,-89.09l233.28 0c49.06,0 89.07,40.03 89.07,89.09l0 479.02 198.43 0 322.73 -525.62c16.66,-27.16 44.03,-42.49 75.9,-42.49l220.72 0c33.52,0 62.25,17.11 78.29,46.55 15.99,29.44 14.7,62.87 -3.53,90.98l-368.31 568.42 378.86 620.57c17.24,28.25 17.87,61.15 1.65,90.01 -16.19,28.88 -44.61,45.5 -77.7,45.5l-256.25 0c-32.34,0 -60.12,-15.83 -76.63,-43.64l-306.18 -516.11zm2038.92 -574.36l-357.85 0 0 1045.02c0,49.05 -40.03,89.09 -89.07,89.09l-229.12 0c-49.06,0 -89.07,-40.03 -89.07,-89.09l0 -1045.02 -359.99 0c-49.03,0 -89.09,-40.03 -89.09,-89.11l0 -149.74c0,-49.06 40.05,-89.09 89.09,-89.09l1125.11 0c49.09,0 89.11,40.05 89.11,89.09l0 149.74c0,49.06 -40.06,89.11 -89.11,89.11zm976.79 1163.34c-154.58,0 -293.48,-32.71 -416.69,-98.15 -123.24,-65.44 -220.02,-155.94 -290.3,-271.53 -70.33,-115.57 -105.47,-245.76 -105.47,-390.56 0,-144.8 35.14,-275.01 105.47,-390.58 70.28,-115.56 167.06,-206.09 290.3,-271.51 123.21,-65.44 262.11,-98.17 416.69,-98.17 154.55,0 293.45,32.73 416.66,98.17 123.23,65.43 220.01,155.96 290.35,271.51 70.28,115.57 105.44,245.78 105.44,390.58 0,144.8 -35.16,274.99 -105.44,390.56 -70.35,115.59 -167.13,206.09 -290.35,271.53 -123.21,65.44 -262.11,98.15 -416.66,98.15zm0 -342.54c73.79,0 140.63,-17.4 200.49,-52.2 59.89,-34.82 107.22,-83.89 142.02,-147.25 34.85,-63.37 52.23,-136.11 52.23,-218.26 0,-82.16 -17.38,-154.9 -52.23,-218.28 -34.8,-63.34 -82.13,-112.43 -142.02,-147.23 -59.86,-34.82 -126.69,-52.22 -200.49,-52.22 -73.79,0 -140.63,17.4 -200.52,52.22 -59.89,34.8 -107.2,83.89 -142.02,147.23 -34.8,63.37 -52.23,136.11 -52.23,218.28 0,82.15 17.43,154.89 52.23,218.26 34.82,63.35 82.13,112.43 142.02,147.25 59.89,34.8 126.72,52.2 200.52,52.2zm1702.21 -1148.74c132.28,0 247.15,21.93 344.64,65.81 97.44,43.85 172.66,106.51 225.58,187.96 52.9,81.47 79.35,177.18 79.35,287.2 0,109.99 -26.45,205.37 -79.35,286.15 -52.91,80.75 -128.13,143.06 -225.58,186.92 -97.49,43.85 -212.37,65.78 -344.64,65.78l-254.78 0 0 293.14c0,49.05 -40.06,89.09 -89.12,89.09l-235.35 0c-49.06,0 -89.11,-40.03 -89.11,-89.09l0 -1283.87c0,-49.06 40.01,-89.09 89.11,-89.09l579.25 0zm-25.06 754c84.93,0 148.98,-18.44 192.15,-55.34 43.19,-36.91 64.76,-89.46 64.76,-157.69 0,-68.23 -21.58,-121.16 -64.76,-158.74 -43.17,-37.6 -107.22,-56.39 -192.15,-56.39l-229.72 0 0 428.17 229.72 0z"/>
   <path class="fil0" d="M7281.58 1934.97l-1.85 -686.03 -350.08 587.29c-16.51,27.73 -44.24,43.48 -76.51,43.48l-83.28 0c-31.89,0 -59.29,-15.36 -75.98,-42.57l-349.87 -571.48 0 669.07c0,49.08 -40,89.09 -89.09,89.09l-201.96 0c-49.05,0 -89.09,-40.01 -89.09,-89.09l0 -1283.85c0,-49.08 40.05,-89.09 89.09,-89.09l201.31 0c31.98,0 59.47,15.44 76.09,42.76l487.76 801.04 475.4 -800.23c16.51,-27.78 44.24,-43.57 76.56,-43.57l200.92 0c48.96,0 88.93,39.85 89.07,88.83l3.71 1283.87c0.05,24.57 -8.68,45.76 -26.04,63.14 -17.35,17.42 -38.48,26.19 -63.05,26.19l-204.03 0c-48.98,0 -88.96,-39.87 -89.09,-88.85zm1702.46 -195.21l-618.26 0 -92.34 228.38c-13.9,34.36 -45.52,55.68 -82.57,55.68l-225.12 0c-31.01,0 -57.74,-14.44 -74.65,-40.43 -16.93,-26.01 -19.41,-56.25 -6.88,-84.62l566.74 -1283.87c14.58,-33.02 45.4,-53.11 81.5,-53.11l291.26 0c36.03,0 66.85,20.04 81.47,53.01l568.53 1283.85c12.61,28.39 10.17,58.66 -6.78,84.67 -16.93,26.03 -43.62,40.5 -74.67,40.5l-233.3 0c-37.07,0 -68.68,-21.32 -82.57,-55.68l-92.36 -228.38zm-121.16 -304.92l-187.97 -467.85 -187.96 467.85 375.93 0zm2151.04 500.13l-1.85 -686.03 -350.05 587.29c-16.54,27.73 -44.25,43.48 -76.55,43.48l-83.25 0c-31.9,0 -59.32,-15.36 -75.96,-42.57l-349.89 -571.48 0 669.07c0,49.08 -40.03,89.09 -89.09,89.09l-201.94 0c-49.09,0 -89.12,-40.01 -89.12,-89.09l0 -1283.85c0,-49.08 40.03,-89.09 89.12,-89.09l201.28 0c32,0 59.49,15.44 76.09,42.76l487.8 801.04 475.35 -800.23c16.51,-27.78 44.27,-43.57 76.59,-43.57l200.89 0c49,0 88.96,39.85 89.11,88.83l3.67 1283.87c0.08,24.57 -8.64,45.76 -26,63.14 -17.37,17.42 -38.52,26.19 -63.09,26.19l-204.03 0c-48.96,0 -88.94,-39.87 -89.09,-88.85zm1702.46 -195.21l-618.24 0 -92.33 228.38c-13.92,34.36 -45.53,55.68 -82.58,55.68l-225.14 0c-31,0 -57.69,-14.44 -74.62,-40.43 -16.95,-26.01 -19.41,-56.25 -6.88,-84.62l566.71 -1283.87c14.6,-33.02 45.44,-53.11 81.52,-53.11l291.24 0c36.06,0 66.87,20.04 81.47,53.01l568.58 1283.85c12.56,28.39 10.13,58.66 -6.8,84.67 -16.91,26.03 -43.61,40.5 -74.67,40.5l-233.3 0c-37.07,0 -68.71,-21.32 -82.6,-55.68l-92.36 -228.38zm-121.14 -304.92l-187.97 -467.85 -187.97 467.85 375.95 0z"/>
   <path class="fil1" d="M4824.58 2914.59l-1002.37 -0.11c-22.01,-58.89 -83.17,-144.17 -117.53,-202.12 -68.86,-116.07 -303.58,-530.64 -361.67,-606.46l-535.27 799.47c-55.88,81.37 -113.58,193.91 -178.07,265.64 -21.48,-21.03 -68,-97.98 -88.25,-128.75l-533.41 -806.64c-23.58,-36.35 -64.67,-106.2 -89.82,-132.65 -20.18,23.03 -43.64,71.5 -61.04,98.67 -20.86,32.6 -40.84,66.77 -59.76,99.87 -92.34,161.62 -289.79,471.25 -359.6,612.42l-426.66 1.17c18.68,77.06 431.35,473.34 552.67,584.37 133.83,122.48 272.11,233.04 411.07,349.11 81.64,68.19 593.61,466.17 654.79,487.94 95.55,-49.45 544.13,-397.69 633.14,-469.65 145.94,-118 306.9,-247.1 444.01,-375.88 47.52,-45.79 95.03,-91.58 142.55,-137.39l59.42 -59.16 60.8 -0.18 558.42 2.75c-24.65,36.37 -66.14,76.61 -95.86,112.61 -30.5,36.97 -73.44,79.28 -106.38,113.73 -138.36,144.69 -294.95,298.09 -448.45,424.7 -82.41,67.95 -152.56,134.35 -238.46,201.55 -242.17,189.45 -490.77,388.31 -748.19,565.33 -77.03,52.98 -179.73,139.32 -261.01,181.32 -25.54,-11.9 -25.11,-14.36 -45.78,-30.01 -15.2,-11.49 -30.54,-20.72 -46.92,-32.96l-446.36 -320.36c-63.35,-46.41 -117.77,-87.7 -175.25,-131.37 -301.44,-228.99 -570.98,-453.56 -832.28,-707.87 -53.46,-52.02 -114.15,-112.14 -152.93,-153.72 -271.3,-291.03 -533.52,-609.28 -708.65,-977.92 -15.67,-32.97 -34.96,-80.07 -49.85,-106.28l984.66 -2.77c23.73,-24.44 73.99,-118.36 93.4,-152.44l275.48 -464.5c50.19,-81 337.68,-593.95 371.14,-620.23 67.42,84.72 119.18,180.12 180.43,271.08 60.86,90.37 123.78,183.85 183.38,276.38 27.37,42.54 340.34,528.73 369.54,551.68 46.34,-43.66 141.08,-208.08 183.77,-270.82 60.12,-88.33 508.79,-783.46 549.58,-828.13 41.29,36.47 685.82,1182.12 740.01,1236.6l480.01 0.42c53.61,-67.42 147.46,-323.42 173.62,-426.38 44.85,-176.56 64.05,-356.01 35.74,-548.27 -25.77,-174.93 -74.78,-322.55 -149.9,-457.27 -340.03,-609.84 -1101.82,-693.28 -1667.73,-342.31 -95.81,59.42 -180.45,120.67 -262.37,190.76 -25.11,21.48 -56.35,51.1 -82.73,69.75 -24.67,-16.28 -46.71,-39.71 -71.71,-60.59 -179.99,-150.31 -361.48,-272.89 -595.18,-344.89 -287.68,-88.62 -648.2,-79.31 -900.88,52.01 -232.24,120.72 -398.01,304.27 -508.14,565.36 -85.29,202.22 -118,469.15 -88.15,692.22 10.46,78.2 21.97,162.82 45.61,229.31l-468.55 1.17c-43.83,-91.79 -49.08,-457.75 -37.16,-576.92 91.65,-914.46 779.17,-1546.6 1717.42,-1470.41 182.65,14.84 357.43,66.07 508.27,132.58 110.23,48.61 211.06,104.58 304.97,174.93 32.52,24.36 60.25,48.82 93.49,68.29 32.5,-18.42 139.93,-102.91 235.53,-159.55 460.15,-272.69 1105.42,-305.59 1582.25,-40.08 194.14,108.13 309.74,221.33 434.58,365.15 226.84,261.3 410.78,730.14 375.67,1208.58 -28.47,387.76 -163.5,716.79 -356.51,1035.64 -23.55,38.91 -61.98,88.51 -76.61,122.5z"/>
  </g>
 </g>
</svg>
