<?xml version="1.0" encoding="UTF-8"?>
<!DOCTYPE svg PUBLIC "-//W3C//DTD SVG 1.1//EN" "http://www.w3.org/Graphics/SVG/1.1/DTD/svg11.dtd">
<!-- Creator: CorelDRAW -->
<svg xmlns="http://www.w3.org/2000/svg" xml:space="preserve" width="120.143mm" height="38.0894mm" version="1.1" style="shape-rendering:geometricPrecision; text-rendering:geometricPrecision; image-rendering:optimizeQuality; fill-rule:evenodd; clip-rule:evenodd"
viewBox="0 0 11999.94 3804.39"
 xmlns:xlink="http://www.w3.org/1999/xlink"
 xmlns:xodm="http://www.corel.com/coreldraw/odm/2003">
 <defs>
  <style type="text/css">
   <![CDATA[
    .fil2 {fill:#148CAD}
    .fil0 {fill:#717070;fill-rule:nonzero}
    .fil1 {fill:#148CAD;fill-rule:nonzero}
   ]]>
  </style>
 </defs>
 <g id="Слой_x0020_1">
  <metadata id="CorelCorpID_0Corel-Layer"/>
  <g id="_105553286477728">
   <path class="fil0" d="M5854.34 2884.28l0 414.39c0,38.12 -31.08,69.22 -69.23,69.22l-155.26 0c-38.14,0 -69.23,-31.09 -69.23,-69.22l0 -159.61 -727.04 0 0 159.61c0,38.12 -31.11,69.22 -69.23,69.22l-156.92 0c-38.13,0 -69.22,-31.09 -69.22,-69.22l0 -414.39 40.57 0c67.08,-1.08 114.4,-47.07 142.01,-137.95 27.58,-90.88 44.63,-221.79 51.1,-392.74l10.54 -283.87c1.36,-37.21 31.93,-66.67 69.17,-66.67l779.36 0c38.14,0 69.24,31.1 69.24,69.23l0 812 154.15 0zm-801.68 -503.09c-4.32,121.17 -14.07,223.95 -29.22,308.35 -15.14,84.38 -38.39,149.3 -69.78,194.74l430.05 0 0 -626.42 -326.2 0 -4.85 123.33zm1514.12 780.6c-120.08,0 -228,-25.42 -323.76,-76.27 -95.74,-50.86 -170.93,-121.18 -225.57,-210.99 -54.61,-89.79 -81.94,-190.94 -81.94,-303.47 0,-112.52 27.33,-213.67 81.94,-303.48 54.64,-89.79 129.83,-160.13 225.57,-210.97 95.77,-50.85 203.69,-76.28 323.76,-76.28 120.1,0 228.02,25.43 323.78,76.28 95.75,50.84 170.94,121.18 225.57,210.97 54.64,89.8 81.96,190.96 81.96,303.48 0,112.53 -27.32,213.67 -81.96,303.47 -54.63,89.81 -129.82,160.13 -225.57,210.99 -95.77,50.85 -203.69,76.27 -323.78,76.27zm0 -266.15c57.35,0 109.28,-13.53 155.81,-40.57 46.53,-27.05 83.3,-65.18 110.36,-114.41 27.05,-49.23 40.58,-105.75 40.58,-169.59 0,-63.83 -13.53,-120.37 -40.58,-169.6 -27.06,-49.21 -63.82,-87.36 -110.36,-114.39 -46.53,-27.06 -98.46,-40.58 -155.81,-40.58 -57.33,0 -109.26,13.52 -155.79,40.58 -46.5,27.04 -83.3,65.18 -110.33,114.39 -27.07,49.23 -40.58,105.76 -40.58,169.6 0,63.83 13.51,120.36 40.58,169.59 27.03,49.23 63.82,87.37 110.33,114.41 46.53,27.04 98.46,40.57 155.79,40.57zm1262.61 -191.49l-146.08 0 0 365.69c0,38.13 -31.08,69.23 -69.22,69.23l-181.25 0c-38.14,0 -69.23,-31.09 -69.23,-69.23l0 -997.56c0,-38.12 31.08,-69.23 69.23,-69.23l181.25 0c38.13,0 69.22,31.1 69.22,69.23l0 372.21 154.19 0 250.76 -408.42c12.94,-21.1 34.21,-33.01 58.98,-33.01l171.5 0c26.04,0 48.37,13.29 60.84,36.17 12.42,22.88 11.42,48.86 -2.75,70.71l-286.17 441.66 294.37 482.19c13.4,21.94 13.88,47.51 1.29,69.94 -12.58,22.43 -34.67,35.35 -60.38,35.35l-199.1 0c-25.13,0 -46.71,-12.3 -59.54,-33.91l-237.91 -401.01zm1584.25 -446.29l-278.06 0 0 811.98c0,38.11 -31.09,69.23 -69.21,69.23l-178.04 0c-38.11,0 -69.21,-31.09 -69.21,-69.23l0 -811.98 -279.71 0c-38.1,0 -69.23,-31.09 -69.23,-69.23l0 -116.35c0,-38.12 31.11,-69.23 69.23,-69.23l874.22 0c38.14,0 69.23,31.11 69.23,69.23l0 116.35c0,38.11 -31.12,69.23 -69.23,69.23zm758.96 903.93c-120.11,0 -228.03,-25.42 -323.76,-76.27 -95.77,-50.86 -170.96,-121.18 -225.57,-210.99 -54.64,-89.79 -81.95,-190.94 -81.95,-303.47 0,-112.52 27.31,-213.67 81.95,-303.48 54.61,-89.79 129.8,-160.13 225.57,-210.97 95.74,-50.85 203.66,-76.28 323.76,-76.28 120.09,0 228.01,25.43 323.74,76.28 95.76,50.84 170.95,121.18 225.6,210.97 54.62,89.8 81.94,190.96 81.94,303.48 0,112.53 -27.32,213.67 -81.94,303.47 -54.65,89.81 -129.84,160.13 -225.6,210.99 -95.74,50.85 -203.66,76.27 -323.74,76.27zm0 -266.15c57.34,0 109.28,-13.53 155.78,-40.57 46.53,-27.05 83.3,-65.18 110.36,-114.41 27.06,-49.23 40.57,-105.75 40.57,-169.59 0,-63.83 -13.51,-120.37 -40.57,-169.6 -27.06,-49.21 -63.82,-87.36 -110.36,-114.39 -46.5,-27.06 -98.44,-40.58 -155.78,-40.58 -57.33,0 -109.27,13.52 -155.79,40.58 -46.53,27.04 -83.31,65.18 -110.36,114.39 -27.04,49.23 -40.58,105.76 -40.58,169.6 0,63.83 13.54,120.36 40.58,169.59 27.05,49.23 63.82,87.37 110.36,114.41 46.52,27.04 98.46,40.57 155.79,40.57zm1322.62 -892.58c102.79,0 192.04,17.05 267.79,51.13 75.72,34.08 134.16,82.77 175.28,146.06 41.1,63.29 61.65,137.68 61.65,223.15 0,85.46 -20.55,159.57 -61.65,222.33 -41.12,62.74 -99.56,111.16 -175.28,145.24 -75.75,34.08 -165,51.12 -267.79,51.12l-197.96 0 0 227.76c0,38.11 -31.12,69.23 -69.24,69.23l-182.88 0c-38.11,0 -69.24,-31.09 -69.24,-69.23l0 -997.56c0,-38.12 31.1,-69.23 69.24,-69.23l450.08 0zm-19.47 585.86c65.99,0 115.76,-14.32 149.31,-43 33.54,-28.68 50.31,-69.52 50.31,-122.52 0,-53.02 -16.77,-94.14 -50.31,-123.35 -33.55,-29.21 -83.32,-43.82 -149.31,-43.82l-178.5 0 0 332.69 178.5 0z"/>
   <path class="fil1" d="M5657.82 1503.47l-1.44 -533.04 -272.01 456.32c-12.83,21.54 -34.38,33.78 -59.45,33.78l-64.71 0c-24.78,0 -46.07,-11.94 -59.03,-33.07l-271.86 -444.05 0 519.88c0,38.12 -31.08,69.22 -69.23,69.22l-156.91 0c-38.12,0 -69.23,-31.09 -69.23,-69.22l0 -997.57c0,-38.12 31.1,-69.22 69.23,-69.22l156.41 0c24.85,0 46.2,12 59.12,33.22l379 622.41 369.39 -621.77c12.83,-21.58 34.37,-33.86 59.49,-33.86l156.11 0c38.04,0 69.1,30.96 69.21,69.03l2.88 997.56c0.05,19.1 -6.74,35.56 -20.23,49.07 -13.48,13.52 -29.9,20.35 -48.99,20.35l-158.52 0c-38.06,0 -69.13,-30.98 -69.23,-69.04zm1322.82 -151.68l-480.39 0 -71.76 177.46c-10.8,26.69 -35.36,43.26 -64.15,43.26l-174.92 0c-24.1,0 -44.86,-11.23 -58.01,-31.42 -13.14,-20.21 -15.07,-43.7 -5.34,-65.75l440.36 -997.56c11.33,-25.66 35.28,-41.27 63.32,-41.27l226.31 0c28,0 51.95,15.57 63.3,41.18l441.76 997.57c9.79,22.05 7.89,45.58 -5.28,65.79 -13.14,20.23 -33.89,31.46 -58.02,31.46l-181.27 0c-28.8,0 -53.36,-16.57 -64.15,-43.26l-71.75 -177.46zm-94.15 -236.92l-146.05 -363.53 -146.06 363.53 292.1 0zm1671.37 388.6l-1.44 -533.04 -271.98 456.32c-12.85,21.54 -34.39,33.78 -59.47,33.78l-64.68 0c-24.8,0 -46.1,-11.94 -59.04,-33.07l-271.86 -444.05 0 519.88c0,38.12 -31.11,69.22 -69.23,69.22l-156.91 0c-38.14,0 -69.24,-31.09 -69.24,-69.22l0 -997.57c0,-38.12 31.09,-69.22 69.24,-69.22l156.4 0c24.86,0 46.21,12 59.12,33.22l379.02 622.41 369.35 -621.77c12.83,-21.58 34.41,-33.86 59.52,-33.86l156.08 0c38.07,0 69.13,30.96 69.24,69.03l2.86 997.56c0.07,19.1 -6.71,35.56 -20.2,49.07 -13.49,13.52 -29.93,20.35 -49.03,20.35l-158.52 0c-38.04,0 -69.12,-30.98 -69.23,-69.04zm1322.82 -151.68l-480.38 0 -71.74 177.46c-10.81,26.69 -35.37,43.26 -64.16,43.26l-174.93 0c-24.09,0 -44.84,-11.23 -57.98,-31.42 -13.17,-20.21 -15.08,-43.7 -5.34,-65.75l440.33 -997.56c11.34,-25.66 35.3,-41.27 63.33,-41.27l226.3 0c28.02,0 51.96,15.57 63.29,41.18l441.79 997.57c9.76,22.05 7.87,45.58 -5.27,65.79 -13.15,20.23 -33.9,31.46 -58.03,31.46l-181.26 0c-28.81,0 -53.39,-16.57 -64.18,-43.26l-71.76 -177.46zm-94.13 -236.92l-146.06 -363.53 -146.06 363.53 292.11 0z"/>
   <path class="fil2" d="M3748.72 2264.64l-778.85 -0.09c-17.1,-45.75 -64.61,-112.02 -91.32,-157.04 -53.5,-90.19 -235.88,-412.32 -281.01,-471.23l-415.91 621.19c-43.41,63.22 -88.25,150.67 -138.35,206.4 -16.69,-16.33 -52.84,-76.13 -68.57,-100.03l-414.46 -626.76c-18.33,-28.25 -50.25,-82.52 -69.79,-103.08 -15.69,17.9 -33.91,55.55 -47.42,76.67 -16.22,25.33 -31.74,51.89 -46.43,77.61 -71.75,125.58 -225.17,366.16 -279.42,475.84l-331.51 0.91c14.51,59.88 335.16,367.79 429.43,454.06 103.99,95.17 211.43,181.07 319.4,271.26 63.44,52.99 461.24,362.22 508.78,379.14 74.24,-38.42 422.78,-309 491.95,-364.92 113.39,-91.69 238.45,-192 345,-292.06 36.93,-35.58 73.84,-71.16 110.76,-106.75l46.17 -45.97 47.24 -0.14 433.89 2.14c-19.16,28.26 -51.4,59.52 -74.48,87.5 -23.7,28.73 -57.06,61.6 -82.66,88.36 -107.51,112.43 -229.18,231.62 -348.44,330 -64.02,52.8 -118.54,104.39 -185.29,156.61 -188.16,147.19 -381.32,301.72 -581.34,439.26 -59.86,41.16 -139.65,108.25 -202.81,140.88 -19.85,-9.24 -19.51,-11.16 -35.57,-23.32 -11.81,-8.93 -23.73,-16.1 -36.47,-25.6l-346.82 -248.92c-49.23,-36.06 -91.51,-68.15 -136.17,-102.08 -234.23,-177.93 -443.66,-352.42 -646.69,-550.01 -41.54,-40.43 -88.69,-87.14 -118.83,-119.45 -210.81,-226.14 -414.55,-473.41 -550.62,-759.85 -12.18,-25.62 -27.17,-62.22 -38.73,-82.58l765.09 -2.15c18.44,-19 57.48,-91.96 72.56,-118.45l214.04 -360.93c39,-62.92 262.39,-461.5 288.39,-481.91 52.38,65.82 92.6,139.95 140.19,210.63 47.28,70.21 96.18,142.84 142.48,214.74 21.27,33.05 264.44,410.83 287.14,428.66 36.01,-33.92 109.62,-161.68 142.79,-210.42 46.7,-68.63 395.33,-608.75 427.02,-643.46 32.08,28.34 532.89,918.5 574.99,960.84l372.97 0.33c41.66,-52.39 114.57,-251.31 134.9,-331.3 34.85,-137.2 49.77,-276.62 27.77,-426.01 -20.02,-135.92 -58.1,-250.62 -116.47,-355.31 -264.2,-473.84 -856.12,-538.68 -1295.83,-265.97 -74.44,46.16 -140.21,93.76 -203.86,148.21 -19.52,16.7 -43.78,39.71 -64.28,54.21 -19.17,-12.65 -36.3,-30.85 -55.72,-47.07 -139.84,-116.8 -280.86,-212.04 -462.45,-267.98 -223.53,-68.87 -503.66,-61.63 -699.98,40.41 -180.45,93.79 -309.26,236.42 -394.83,439.28 -66.27,157.12 -91.69,364.52 -68.5,537.85 8.13,60.77 17.07,126.52 35.44,178.18l-364.05 0.91c-34.06,-71.32 -38.14,-355.67 -28.88,-448.26 71.2,-710.54 605.41,-1201.72 1334.44,-1142.51 141.92,11.53 277.73,51.34 394.93,103.02 85.65,37.76 163.99,81.25 236.97,135.92 25.26,18.93 46.8,37.92 72.64,53.06 25.26,-14.31 108.73,-79.96 183,-123.97 357.54,-211.88 858.92,-237.44 1229.41,-31.13 150.85,84.01 240.67,171.97 337.68,283.72 176.25,203.03 319.18,567.32 291.89,939.07 -22.12,301.3 -127.04,556.94 -277,804.7 -18.3,30.24 -48.16,68.78 -59.53,95.19z"/>
  </g>
 </g>
</svg>
